<?xml version="1.0" encoding="UTF-8" standalone="no"?>
<!-- Created with Inkscape (http://www.inkscape.org/) -->

<svg
   width="536.0777"
   height="536.08038"
   viewBox="0 0 178.69256 178.69346"
   version="1.1"
   id="svg1"
   xml:space="preserve"
   xmlns="http://www.w3.org/2000/svg"
   xmlns:svg="http://www.w3.org/2000/svg"><defs
     id="defs1" /><path
     d="m 89.094525,54.121217 a 4.8277952,4.7882224 0 0 0 -1.85026,0.4681 l -25.24609,12.06315 a 4.8277952,4.7882224 0 0 0 -2.61263,3.24805 l -6.22787,27.09701 a 4.8277952,4.7882224 0 0 0 0.65495,3.671223 4.8277952,4.7882224 0 0 0 0.27474,0.38086 l 17.47461,21.72656 a 4.8277952,4.7882224 0 0 0 3.77474,1.80209 l 28.023445,-0.007 a 4.8277952,4.7882224 0 0 0 3.77409,-1.79817 l 17.46809,-21.73047 a 4.8277952,4.7882224 0 0 0 0.9336,-4.052083 l -6.23828,-27.09701 a 4.8277952,4.7882224 0 0 0 -2.61198,-3.24805 L 91.435675,54.589487 a 4.8277952,4.7882224 0 0 0 -2.34115,-0.4681 z"
     style="fill:#2b79ee;stroke-width:0"
     id="path341" /><path
     d="m 87.289185,23.425907 c -0.0162,0 -0.0312,-0.005 -0.0475,-0.005 l -6.5e-4,-0.005 c -2.10335,0.0545 -3.75902,1.99291 -3.70052,4.33008 0,0.024 0.004,0.0464 0.005,0.0703 0.006,0.32317 0.002,0.72715 0.0208,1.01367 0.0838,1.34771 0.40796,2.37191 0.61588,3.61003 0.38694,2.65194 0.70733,4.85017 0.59245,6.90364 -0.10172,0.84967 -0.87838,1.63515 -1.19271,2.00065 l -0.27474,8.47266 -26.30599,12.56901 -6.19856,-4.18229 c -0.68699,0.0269 -1.72437,0.12102 -2.31967,-0.19141 -1.7342,-1.10559 -3.32667,-2.65095 -5.2539,-4.51302 -0.88419,-0.89151 -1.53078,-1.75836 -2.57617,-2.61328 -0.23003,-0.18813 -0.57254,-0.43154 -0.83529,-0.62826 l -0.0273,-0.0189 c -0.0141,-0.011 -0.0358,-0.0238 -0.0495,-0.0345 -1.84542,-1.36132 -4.32689,-1.1498 -5.59701,0.47786 -0.0103,0.0132 -0.0238,0.0224 -0.0339,0.0358 -1.26027,1.6646 -0.79753,4.14151 1.02864,5.5599 0.0133,0.0102 0.0297,0.0288 0.0436,0.0397 0.0206,0.0156 0.0447,0.0244 0.0658,0.0397 0.25568,0.19723 0.56827,0.4501 0.80208,0.61394 1.1059,0.77454 2.10581,1.16799 3.20378,1.77734 2.31446,1.35102 4.23668,2.46586 5.77083,3.83594 0.59718,0.60828 0.72056,1.67415 0.81576,2.17578 l 6.95963,5.92252 -6.36133,27.67644 -7.93229,2.519533 c -0.33371,0.60604 -0.82549,1.37855 -1.43359,1.64583 -1.9453,0.66655 -4.31182,0.99735 -6.9694,1.3431 -1.24826,0.1354 -2.32849,0.10755 -3.64844,0.39193 -0.31588,0.068 -0.77554,0.20295 -1.10026,0.28515 -2.23603,0.59707 -3.62355,2.70019 -3.10807,4.72461 0.0342,0.13411 0.0952,0.25376 0.14388,0.38021 h -6.5e-4 c 0.69074,1.79416 2.77255,2.80212 4.88671,2.26888 0.004,0 0.008,0.003 0.0117,0 0.002,-0.003 0.005,-0.004 0.007,-0.005 0.32141,-0.0805 0.75297,-0.17522 1.04623,-0.26172 1.29515,-0.38167 2.2232,-0.92531 3.38411,-1.40364 2.58951,-0.8559 4.98237,-2.14093 7.14388,-2.14193 0.59212,-2e-5 1.12426,0.36294 1.66927,0.74479 l 9.9681,-1.91927 17.16276,21.33854 c -1.14067,2.93193 -3.36403,8.63236 -3.42903,8.8125 0.2572,0.63701 0.63019,1.25405 0.3457,2.2513 -0.69219,1.93691 -1.84347,3.83028 -3.22982,6.1237 -0.67249,1.06044 -1.36431,1.88603 -1.96484,3.09505 -0.13699,0.27557 -0.30999,0.68779 -0.44531,0.99089 -0.9543,2.11516 -0.19457,4.51617 1.69075,5.39974 v 6.5e-4 c 0.0154,0.007 0.0275,0.0184 0.043,0.0254 1.90435,0.85901 4.21681,-0.1418 5.19271,-2.24023 0.13743,-0.30586 0.34427,-0.74108 0.46614,-1.04037 0.50909,-1.25071 0.66328,-2.31373 1.01302,-3.51953 0.80196,-2.55718 1.46974,-4.68057 2.4642,-6.48112 0.55914,-0.87311 1.26381,-0.99138 1.91146,-1.22005 0.0303,-0.19257 3.9013,-7.51737 4.86783,-9.33594 l 27.100925,-0.007 c 1.56593,2.64663 4.82681,8.16384 4.93619,8.36393 0.6582,0.19635 1.37514,0.2825 1.97722,1.12696 1.08288,1.7484 1.8468,3.83504 2.77539,6.34895 0.40963,1.18695 0.6172,2.24597 1.18815,3.46941 0.12059,0.25852 0.32187,0.60528 0.47135,0.89127 0.0116,0.0232 0.0164,0.0484 0.0286,0.0716 0.008,0.0156 0.0226,0.0344 0.0306,0.0495 1.08051,2.04447 3.4392,2.93055 5.29687,1.97787 0.17154,-0.088 0.32136,-0.20071 0.47201,-0.3125 1.48044,-1.09862 1.94522,-3.26432 1.01107,-5.14323 -0.15302,-0.29835 -0.35421,-0.7345 -0.51237,-1.01628 -0.66023,-1.17779 -1.40129,-1.96546 -2.12631,-2.99088 -1.49927,-2.22153 -2.74425,-4.05849 -3.5319,-5.95833 -0.27646,-0.81206 0.0868,-1.85966 0.20899,-2.32357 l -3.8711,-8.68815 17.56055,-21.84571 c 2.81039,0.39925 6.06976,0.84158 8.64323,1.1823 0.56373,-0.39235 1.07917,-0.89395 2.11458,-0.83855 2.04202,0.24361 4.15154,0.94102 6.69597,1.78256 1.18359,0.41978 2.14123,0.92259 3.45377,1.23893 0.297,0.0717 0.73246,0.14403 1.05729,0.20833 2.2928,0.46297 4.4907,-0.83197 4.90756,-2.89583 0.0191,-0.0931 0.0131,-0.1851 0.0241,-0.278 0.23371,-1.96638 -1.22745,-3.85521 -3.41731,-4.29752 -0.32521,-0.0668 -0.75758,-0.1643 -1.06185,-0.2142 -1.33243,-0.21814 -2.40577,-0.14344 -3.65951,-0.21614 -2.67144,-0.21264 -4.88997,-0.37918 -6.86653,-0.947923 -0.80471,-0.28985 -1.38815,-1.21482 -1.68165,-1.61002 l -8.08203,-2.14453 -6.52669,-28.34961 c 2.48037,-2.33849 5.373,-5.06671 5.50326,-5.18555 0.0446,-0.68534 -0.0303,-1.40538 0.65885,-2.18034 1.46382,-1.44474 3.33134,-2.65003 5.57552,-4.11458 1.06631,-0.66331 2.04646,-1.10204 3.11263,-1.93099 0.24223,-0.18826 0.57169,-0.48833 0.82487,-0.70248 1.76784,-1.48373 2.13053,-3.95972 0.8405,-5.57487 -0.0175,-0.022 -0.028,-0.0474 -0.0462,-0.069 v 0.003 c -1.35363,-1.61278 -3.90404,-1.70183 -5.69596,-0.19792 -0.0276,0.0232 -0.0488,0.0508 -0.0755,0.0742 -0.24564,0.20203 -0.54922,0.43682 -0.75456,0.6224 -1.00144,0.90567 -1.60365,1.79492 -2.44206,2.72981 -1.83199,1.95581 -3.34856,3.57928 -5.02539,4.77019 -0.69581,0.37326 -1.60332,0.39126 -2.30599,0.31836 l -6.40299,4.76106 -26.588545,-12.69596 -0.5905,-7.3125 c -0.508,-0.46225 -1.11231,-0.85475 -1.28841,-1.87695 -0.21704,-2.04512 -0.003,-4.2539 0.25391,-6.92188 0.14596,-1.24714 0.41123,-2.28452 0.42773,-3.63476 0.004,-0.30643 -0.0167,-0.75167 -0.0267,-1.08334 -0.0258,-1.02311 -0.37789,-1.96011 -0.94011,-2.67838 -0.71254,-0.91078 -1.7737,-1.47244 -2.93815,-1.45964 z m 1.80534,30.69531 a 4.8277952,4.7882224 0 0 1 2.34115,0.4681 l 25.250005,12.05599 a 4.8277952,4.7882224 0 0 1 2.61198,3.24805 l 6.23828,27.09701 a 4.8277952,4.7882224 0 0 1 -0.9336,4.052083 l -17.46809,21.73047 a 4.8277952,4.7882224 0 0 1 -3.77409,1.79817 l -28.023445,0.007 a 4.8277952,4.7882224 0 0 1 -3.77474,-1.80209 l -17.47461,-21.72656 a 4.8277952,4.7882224 0 0 1 -0.27474,-0.38086 4.8277952,4.7882224 0 0 1 -0.65495,-3.671223 l 6.22787,-27.09701 a 4.8277952,4.7882224 0 0 1 2.61263,-3.24805 l 25.24609,-12.06315 a 4.8277952,4.7882224 0 0 1 1.85026,-0.4681 z"
     style="fill:#ffffff;fill-opacity:1;stroke-width:0"
     id="path339" /><path
     d="m 159.07329,33.554257 -17.34505,14.52278 c 1.29003,1.61515 0.92734,4.09114 -0.8405,5.57487 -0.25318,0.21415 -0.58264,0.51422 -0.82487,0.70248 -1.06617,0.82895 -2.04632,1.26768 -3.11263,1.93099 -2.24418,1.46455 -4.1117,2.66984 -5.57552,4.11458 -0.68915,0.77496 -0.61425,1.495 -0.65885,2.18034 -0.13026,0.11884 -3.02289,2.84706 -5.50326,5.18555 l 6.52669,28.34961 8.08203,2.14453 c 0.2935,0.3952 0.87694,1.32017 1.68165,1.61002 1.97656,0.568743 4.19509,0.735283 6.86653,0.947923 1.25374,0.0727 2.32708,-0.002 3.65951,0.21614 0.30427,0.0499 0.73664,0.1474 1.06185,0.2142 2.18986,0.44231 3.65102,2.33114 3.41731,4.29752 l 19.58594,3.87696 a 89.313324,89.313324 0 0 0 2.56511,-20.076183 89.313324,89.313324 0 0 0 -19.58594,-55.79231 z"
     style="fill:#75aaf0;stroke:#75aaf0;stroke-width:0.0666667;stroke-dasharray:none"
     id="path340" /><path
     d="m 176.09453,109.42266 -19.58594,-3.87696 c -0.011,0.0929 -0.005,0.18489 -0.0241,0.278 -0.41686,2.06386 -2.61476,3.3588 -4.90756,2.89583 -0.32483,-0.0643 -0.76029,-0.13663 -1.05729,-0.20833 -1.31254,-0.31634 -2.27018,-0.81915 -3.45377,-1.23893 -2.54443,-0.84154 -4.65395,-1.53895 -6.69597,-1.78256 -1.03541,-0.0554 -1.55085,0.4462 -2.11458,0.83855 -2.57347,-0.34072 -5.83284,-0.78305 -8.64323,-1.1823 l -17.56055,21.84571 3.8711,8.68815 c -0.12219,0.46391 -0.48545,1.51151 -0.20899,2.32357 0.78765,1.89984 2.03263,3.7368 3.5319,5.95833 0.72502,1.02542 1.46608,1.81309 2.12631,2.99088 0.15816,0.28178 0.35935,0.71793 0.51237,1.01628 0.93415,1.87891 0.46937,4.04461 -1.01107,5.14323 l 8.40234,16.06901 a 89.313324,89.313324 0 0 0 46.81901,-59.75846 z"
     style="fill:#75aaf0;stroke:#75aaf0;stroke-width:0.0666667;stroke-dasharray:none"
     id="path342" /><path
     d="m 129.27552,169.18112 -8.40234,-16.06901 c -0.15065,0.11179 -0.30047,0.22451 -0.47201,0.3125 -1.85767,0.95268 -4.21636,0.0666 -5.29687,-1.97787 -0.008,-0.0151 -0.0226,-0.0339 -0.0306,-0.0495 -0.0122,-0.0232 -0.017,-0.0484 -0.0286,-0.0716 -0.14948,-0.28599 -0.35076,-0.63275 -0.47135,-0.89127 -0.57095,-1.22344 -0.77852,-2.28246 -1.18815,-3.46941 -0.92859,-2.51391 -1.69251,-4.60055 -2.77539,-6.34895 -0.60208,-0.84446 -1.31902,-0.93061 -1.97722,-1.12696 -0.10938,-0.20009 -3.37026,-5.7173 -4.93619,-8.36393 l -27.100925,0.007 c -0.96653,1.81857 -4.83755,9.14337 -4.86783,9.33594 -0.64765,0.22867 -1.35232,0.34694 -1.91146,1.22005 -0.99446,1.80055 -1.66224,3.92394 -2.4642,6.48112 -0.34974,1.2058 -0.50393,2.26882 -1.01302,3.51953 -0.12187,0.29929 -0.32871,0.73451 -0.46614,1.04037 -0.9759,2.09843 -3.28836,3.09924 -5.19271,2.24023 -0.0155,-0.007 -0.0276,-0.0182 -0.043,-0.0254 l -7.18359,15.90951 v 6.5e-4 a 89.313324,89.313324 0 0 0 35.89257,7.80599 89.313324,89.313324 0 0 0 39.929045,-9.47852 z"
     style="fill:#1971e6;stroke:#1971e6;stroke-width:0.0666667;stroke-dasharray:none"
     id="path343" /><path
     d="m 53.453905,170.85365 7.18359,-15.91016 c -1.88532,-0.88357 -2.64505,-3.28458 -1.69075,-5.39974 0.13532,-0.3031 0.30832,-0.71532 0.44531,-0.99089 0.60053,-1.20902 1.29235,-2.03461 1.96484,-3.09505 1.38635,-2.29342 2.53763,-4.18679 3.22982,-6.1237 0.28449,-0.99725 -0.0885,-1.61429 -0.3457,-2.2513 0.065,-0.18014 2.28836,-5.88057 3.42903,-8.8125 l -17.16276,-21.33854 -9.9681,1.91927 c -0.54501,-0.38185 -1.07715,-0.74481 -1.66927,-0.74479 -2.16151,10e-4 -4.55437,1.28603 -7.14388,2.14193 -1.16091,0.47833 -2.08896,1.02197 -3.38411,1.40364 -0.29326,0.0865 -0.72482,0.18122 -1.04623,0.26172 -0.002,0.001 -0.005,0.002 -0.007,0.005 -0.004,0.003 -0.008,0 -0.0117,0 -2.11416,0.53324 -4.19597,-0.47472 -4.88671,-2.26888 l -18.5742225,4.8431 h -6.51e-4 a 89.313324,89.313324 0 0 0 49.6380235,56.36068 z"
     style="fill:#488eea;stroke:#488eea;stroke-width:0.0666667;stroke-dasharray:none"
     id="path344" /><path
     d="m 3.8158825,114.49297 18.5748725,-4.8431 c -0.0487,-0.12645 -0.1097,-0.2461 -0.14388,-0.38021 -0.51548,-2.02442 0.87204,-4.12754 3.10807,-4.72461 0.32472,-0.0822 0.78438,-0.21715 1.10026,-0.28515 1.31995,-0.28438 2.40018,-0.25653 3.64844,-0.39193 2.65758,-0.34575 5.0241,-0.67655 6.9694,-1.3431 0.6081,-0.26728 1.09988,-1.03979 1.43359,-1.64583 l 7.93229,-2.519533 6.36133,-27.67644 -6.95963,-5.92252 c -0.0952,-0.50163 -0.21858,-1.5675 -0.81576,-2.17578 -1.53415,-1.37008 -3.45637,-2.48492 -5.77083,-3.83594 -1.09797,-0.60935 -2.09788,-1.0028 -3.20378,-1.77734 -0.23381,-0.16384 -0.5464,-0.41671 -0.80208,-0.61394 -0.0211,-0.0153 -0.0452,-0.0241 -0.0658,-0.0397 -0.0139,-0.0109 -0.0303,-0.0295 -0.0436,-0.0397 -1.82617,-1.41839 -2.28891,-3.8953 -1.02864,-5.5599 0.0101,-0.0134 0.0236,-0.0226 0.0339,-0.0358 L 16.710413,37.470827 A 89.313324,89.313324 0 0 0 0.03333046,89.346477 89.313324,89.313324 0 0 0 3.8158825,114.49297 Z"
     style="fill:#488eea;stroke:#488eea;stroke-width:0.0666667;stroke-dasharray:none"
     id="path345" /><path
     d="m 16.710413,37.470827 17.433592,13.21159 c 1.27012,-1.62766 3.75159,-1.83918 5.59701,-0.47786 0.0137,0.0107 0.0354,0.0235 0.0495,0.0345 l 0.0273,0.0189 c 0.26275,0.19672 0.60526,0.44013 0.83529,0.62826 1.04539,0.85492 1.69198,1.72177 2.57617,2.61328 1.92723,1.86207 3.5197,3.40743 5.2539,4.51302 0.5953,0.31243 1.63268,0.21831 2.31967,0.19141 l 6.19856,4.18229 26.30599,-12.56901 0.27474,-8.47266 c 0.31433,-0.3655 1.09099,-1.15098 1.19271,-2.00065 0.11488,-2.05347 -0.20551,-4.2517 -0.59245,-6.90364 -0.20792,-1.23812 -0.53208,-2.26232 -0.61588,-3.61003 -0.0184,-0.28652 -0.0148,-0.6905 -0.0208,-1.01367 -0.001,-0.0239 -0.005,-0.0463 -0.005,-0.0703 -0.0585,-2.33717 1.59717,-4.27558 3.70052,-4.33008 l 6.5e-4,0.005 c 0.0163,-4.1e-4 0.0313,0.005 0.0475,0.005 L 86.717575,0.24036349 A 89.313324,89.313324 0 0 0 16.710413,37.470827 Z"
     style="fill:#1971e6;stroke:#1971e6;stroke-width:0.0666667;stroke-dasharray:none"
     id="path337" /><path
     d="m 89.346475,0.03333249 a 89.313324,89.313324 0 0 0 -2.6289,0.207031 l 0.57161,23.18554351 c 1.16445,-0.0128 2.22561,0.54886 2.93815,1.45964 0.56222,0.71827 0.91431,1.65527 0.94011,2.67838 0.01,0.33167 0.0307,0.77691 0.0267,1.08334 -0.0165,1.35024 -0.28177,2.38762 -0.42773,3.63476 -0.25691,2.66798 -0.47095,4.87676 -0.25391,6.92188 0.1761,1.0222 0.78041,1.4147 1.28841,1.87695 l 0.5905,7.3125 26.588545,12.69596 6.40299,-4.76106 c 0.70267,0.0729 1.61018,0.0549 2.30599,-0.31836 1.67683,-1.19091 3.1934,-2.81438 5.02539,-4.77019 0.83841,-0.93489 1.44062,-1.82414 2.44206,-2.72981 0.20534,-0.18558 0.50892,-0.42037 0.75456,-0.6224 0.0267,-0.0234 0.0479,-0.051 0.0755,-0.0742 1.79192,-1.50391 4.34233,-1.41486 5.69596,0.19792 v -0.003 c 0.0182,0.0216 0.0287,0.047 0.0462,0.069 l 17.34505,-14.52278 A 89.313324,89.313324 0 0 0 89.346475,0.03333249 Z"
     style="fill:#1971e6;stroke:#1971e6;stroke-width:0.0666667;stroke-dasharray:none"
     id="path338" /></svg>
